<?xml version="1.0" encoding="UTF-8"?>
<svg width="55mm" height="55mm" version="1.1" viewBox="0 0 54.76 46.99" xmlns="http://www.w3.org/2000/svg"><g transform="translate(-.26019)"><g transform="matrix(.97331 0 0 .97331 .7376 .62698)"><path d="m7.7443 2.9244c-0.41674-0.33802-0.92008-0.57501-1.4828-0.67008-1.8008-0.30422-3.5062 0.96162-3.8233 2.8391l-2.1263 12.588c-0.40874 2.4195 1.6762 4.4074 3.9834 4.0964l12.651-1.7062c1.887-0.25441 3.2094-1.9163 2.9654-3.7263-0.24403-1.81-1.9592-3.0621-3.8462-2.8077l-8.5624 1.1541 1.4359-8.4995c0.21805-1.2908-0.27831-2.5238-1.195-3.2676z" stroke-width=".45511"/><path d="m9.209 13.172s9.7709-12.307 26.075-9.6744c16.304 2.6328 20.32 23.929 13.154 33.582-7.6419 10.293-30.658 8.5256-38.338-3.0653" fill="none" stroke="#000" stroke-linecap="round" stroke-width="6.265"/></g></g></svg>
